<mxfile host="app.diagrams.net" modified="2021-03-30T06:47:56.854Z" agent="5.0 (Macintosh; Intel Mac OS X 10_15_7) AppleWebKit/537.36 (KHTML, like Gecko) Chrome/86.0.4240.193 Safari/537.36" etag="ybuwvHIez_5R5YWwOX3c" version="14.5.3" type="github">
  <diagram id="cTsIDNshQpALD4lZKKJo" name="Page-1">
    <mxGraphModel dx="946" dy="1705" grid="1" gridSize="10" guides="1" tooltips="1" connect="1" arrows="1" fold="1" page="1" pageScale="1" pageWidth="827" pageHeight="1169" math="0" shadow="0">
      <root>
        <mxCell id="0" />
        <mxCell id="1" parent="0" />
        <mxCell id="OZ0cQjbIUvIi7hMA9QfN-11" style="edgeStyle=orthogonalEdgeStyle;rounded=0;orthogonalLoop=1;jettySize=auto;html=1;exitX=1;exitY=0.5;exitDx=0;exitDy=0;entryX=0;entryY=0.5;entryDx=0;entryDy=0;" edge="1" parent="1" source="OZ0cQjbIUvIi7hMA9QfN-1" target="OZ0cQjbIUvIi7hMA9QfN-3">
          <mxGeometry relative="1" as="geometry" />
        </mxCell>
        <mxCell id="OZ0cQjbIUvIi7hMA9QfN-12" style="edgeStyle=orthogonalEdgeStyle;rounded=0;orthogonalLoop=1;jettySize=auto;html=1;exitX=1;exitY=0.5;exitDx=0;exitDy=0;entryX=0;entryY=0.5;entryDx=0;entryDy=0;" edge="1" parent="1" source="OZ0cQjbIUvIi7hMA9QfN-1" target="OZ0cQjbIUvIi7hMA9QfN-4">
          <mxGeometry relative="1" as="geometry" />
        </mxCell>
        <mxCell id="OZ0cQjbIUvIi7hMA9QfN-13" style="edgeStyle=orthogonalEdgeStyle;rounded=0;orthogonalLoop=1;jettySize=auto;html=1;exitX=1;exitY=0.5;exitDx=0;exitDy=0;entryX=0;entryY=0.5;entryDx=0;entryDy=0;" edge="1" parent="1" source="OZ0cQjbIUvIi7hMA9QfN-1" target="OZ0cQjbIUvIi7hMA9QfN-5">
          <mxGeometry relative="1" as="geometry" />
        </mxCell>
        <mxCell id="OZ0cQjbIUvIi7hMA9QfN-1" value="&lt;pre&gt;AnnotationConfigApplicationContext&lt;/pre&gt;" style="rounded=1;whiteSpace=wrap;html=1;fillColor=#ffe6cc;strokeColor=#d79b00;" vertex="1" parent="1">
          <mxGeometry x="10" y="240" width="270" height="50" as="geometry" />
        </mxCell>
        <mxCell id="OZ0cQjbIUvIi7hMA9QfN-15" style="edgeStyle=orthogonalEdgeStyle;rounded=0;orthogonalLoop=1;jettySize=auto;html=1;exitX=1;exitY=0.5;exitDx=0;exitDy=0;entryX=0;entryY=0.5;entryDx=0;entryDy=0;" edge="1" parent="1" source="OZ0cQjbIUvIi7hMA9QfN-3" target="OZ0cQjbIUvIi7hMA9QfN-6">
          <mxGeometry relative="1" as="geometry" />
        </mxCell>
        <mxCell id="OZ0cQjbIUvIi7hMA9QfN-16" style="edgeStyle=orthogonalEdgeStyle;rounded=0;orthogonalLoop=1;jettySize=auto;html=1;exitX=1;exitY=0.5;exitDx=0;exitDy=0;entryX=0;entryY=0.5;entryDx=0;entryDy=0;" edge="1" parent="1" source="OZ0cQjbIUvIi7hMA9QfN-3" target="OZ0cQjbIUvIi7hMA9QfN-7">
          <mxGeometry relative="1" as="geometry" />
        </mxCell>
        <mxCell id="OZ0cQjbIUvIi7hMA9QfN-17" style="edgeStyle=orthogonalEdgeStyle;rounded=0;orthogonalLoop=1;jettySize=auto;html=1;exitX=1;exitY=0.5;exitDx=0;exitDy=0;entryX=0;entryY=0.5;entryDx=0;entryDy=0;" edge="1" parent="1" source="OZ0cQjbIUvIi7hMA9QfN-3" target="OZ0cQjbIUvIi7hMA9QfN-8">
          <mxGeometry relative="1" as="geometry" />
        </mxCell>
        <mxCell id="OZ0cQjbIUvIi7hMA9QfN-3" value="this&lt;br&gt;初始化组件" style="rounded=1;whiteSpace=wrap;html=1;fillColor=#fff2cc;strokeColor=#d6b656;" vertex="1" parent="1">
          <mxGeometry x="354" y="70" width="120" height="50" as="geometry" />
        </mxCell>
        <mxCell id="OZ0cQjbIUvIi7hMA9QfN-14" style="edgeStyle=orthogonalEdgeStyle;rounded=0;orthogonalLoop=1;jettySize=auto;html=1;exitX=1;exitY=0.5;exitDx=0;exitDy=0;entryX=0;entryY=0.5;entryDx=0;entryDy=0;" edge="1" parent="1" source="OZ0cQjbIUvIi7hMA9QfN-4" target="OZ0cQjbIUvIi7hMA9QfN-10">
          <mxGeometry relative="1" as="geometry" />
        </mxCell>
        <mxCell id="OZ0cQjbIUvIi7hMA9QfN-4" value="&lt;pre&gt;register&lt;/pre&gt;&lt;pre&gt;注册配置类&lt;/pre&gt;" style="rounded=1;whiteSpace=wrap;html=1;fillColor=#fff2cc;strokeColor=#d6b656;" vertex="1" parent="1">
          <mxGeometry x="354" y="240" width="120" height="50" as="geometry" />
        </mxCell>
        <mxCell id="OZ0cQjbIUvIi7hMA9QfN-5" value="&lt;pre&gt;&lt;pre&gt;refresh&lt;/pre&gt;&lt;pre&gt;刷新容器&lt;/pre&gt;&lt;/pre&gt;" style="rounded=1;whiteSpace=wrap;html=1;fillColor=#f8cecc;strokeColor=#b85450;" vertex="1" parent="1">
          <mxGeometry x="354" y="330" width="120" height="50" as="geometry" />
        </mxCell>
        <mxCell id="OZ0cQjbIUvIi7hMA9QfN-6" value="&lt;pre&gt;&lt;pre&gt;执行GenericApplicationContext无参构造函数，&lt;/pre&gt;&lt;pre&gt;初始化beanFactory为DefaultListableBeanFactory&lt;/pre&gt;&lt;/pre&gt;" style="rounded=1;whiteSpace=wrap;html=1;fillColor=#fff2cc;strokeColor=#d6b656;" vertex="1" parent="1">
          <mxGeometry x="550" y="-10" width="380" height="50" as="geometry" />
        </mxCell>
        <mxCell id="OZ0cQjbIUvIi7hMA9QfN-7" value="初始化AnnotatedBeanDefinitionReader&lt;br&gt;&lt;b&gt;并且注入6个Bean&lt;/b&gt;" style="rounded=1;whiteSpace=wrap;html=1;fillColor=#fff2cc;strokeColor=#d6b656;" vertex="1" parent="1">
          <mxGeometry x="550" y="70" width="380" height="50" as="geometry" />
        </mxCell>
        <mxCell id="OZ0cQjbIUvIi7hMA9QfN-8" value="初始化ClassPathBeanDefinitionScanner" style="rounded=1;whiteSpace=wrap;html=1;fillColor=#fff2cc;strokeColor=#d6b656;" vertex="1" parent="1">
          <mxGeometry x="550" y="150" width="380" height="50" as="geometry" />
        </mxCell>
        <mxCell id="OZ0cQjbIUvIi7hMA9QfN-10" value="将配置类转为BeanDefinition并注册到BeanDefinitionRegistry" style="rounded=1;whiteSpace=wrap;html=1;fillColor=#fff2cc;strokeColor=#d6b656;" vertex="1" parent="1">
          <mxGeometry x="550" y="240" width="380" height="50" as="geometry" />
        </mxCell>
      </root>
    </mxGraphModel>
  </diagram>
</mxfile>
